<svg class="main-svg" xmlns="http://www.w3.org/2000/svg" xmlns:xlink="http://www.w3.org/1999/xlink" width="700" height="400" style="" viewBox="0 0 700 400"><rect x="0" y="0" width="700" height="400" style="fill: rgb(255, 255, 255); fill-opacity: 1;"/><defs id="defs-306ae8"><g class="clips"><clipPath id="clip306ae8xyplot" class="plotclip"><rect width="540" height="220"/></clipPath><clipPath class="axesclip" id="clip306ae8x"><rect x="80" y="0" width="540" height="400"/></clipPath><clipPath class="axesclip" id="clip306ae8y"><rect x="0" y="100" width="700" height="220"/></clipPath><clipPath class="axesclip" id="clip306ae8xy"><rect x="80" y="100" width="540" height="220"/></clipPath></g><g class="gradients"/><g class="patterns"/></defs><g class="bglayer"><rect class="bg" x="80" y="100" width="540" height="220" style="fill: rgb(229, 236, 246); fill-opacity: 1; stroke-width: 0;"/></g><g class="layer-below"><g class="imagelayer"/><g class="shapelayer"><g class="shape-group" data-index="0"><path data-index="0" fill-rule="evenodd" d="M80,320H620V100H80Z" style="opacity: 1; stroke: rgb(0, 0, 0); stroke-opacity: 0; fill: rgb(220, 220, 220); fill-opacity: 1; stroke-width: 0px;"/></g></g></g><g class="cartesianlayer"><g class="subplot xy"><g class="layer-subplot"><g class="shapelayer"/><g class="imagelayer"/></g><g class="minor-gridlayer"><g class="x"/><g class="y"/></g><g class="gridlayer"><g class="x"><path class="xgrid crisp" transform="translate(216.13,0)" d="M0,100v220" style="stroke: rgb(255, 255, 255); stroke-opacity: 1; stroke-width: 1px;"/><path class="xgrid crisp" transform="translate(352.27,0)" d="M0,100v220" style="stroke: rgb(255, 255, 255); stroke-opacity: 1; stroke-width: 1px;"/><path class="xgrid crisp" transform="translate(488.4,0)" d="M0,100v220" style="stroke: rgb(255, 255, 255); stroke-opacity: 1; stroke-width: 1px;"/></g><g class="y"><path class="ygrid crisp" transform="translate(0,253.85)" d="M80,0h540" style="stroke: rgb(255, 255, 255); stroke-opacity: 1; stroke-width: 1px;"/><path class="ygrid crisp" transform="translate(0,206.56)" d="M80,0h540" style="stroke: rgb(255, 255, 255); stroke-opacity: 1; stroke-width: 1px;"/><path class="ygrid crisp" transform="translate(0,159.28)" d="M80,0h540" style="stroke: rgb(255, 255, 255); stroke-opacity: 1; stroke-width: 1px;"/><path class="ygrid crisp" transform="translate(0,112)" d="M80,0h540" style="stroke: rgb(255, 255, 255); stroke-opacity: 1; stroke-width: 1px;"/></g></g><g class="zerolinelayer"><path class="yzl zl crisp" transform="translate(0,301.13)" d="M80,0h540" style="stroke: rgb(255, 255, 255); stroke-opacity: 1; stroke-width: 2px;"/></g><g class="layer-between"><g class="shapelayer"/><g class="imagelayer"/></g><path class="xlines-below"/><path class="ylines-below"/><g class="overlines-below"/><g class="xaxislayer-below"/><g class="yaxislayer-below"/><g class="overaxes-below"/><g class="overplot"><g class="xy" transform="translate(80,100)" clip-path="url(#clip306ae8xyplot)"><g class="scatterlayer mlayer"><g class="trace scatter trace89a2bd" style="stroke-miterlimit: 2; opacity: 1;"><g class="fills"/><g class="errorbars"/><g class="lines"><path class="js-line" d="M0,201.11L4.54,109.3L9.08,90.84L13.61,127.52L18.15,177.9L22.69,190.17L27.23,189.75L31.76,189.35L36.3,190.22L40.84,190.28L45.38,189.54L63.53,191.54L68.07,189.15L72.61,188.2L77.14,189.95L86.22,189.06L90.76,189.13L95.29,188.5L99.83,189.24L104.37,189.22L108.91,186.76L117.98,189.22L122.52,189.19L131.6,189.7L136.13,190.38L145.21,191.95L149.75,190.47L154.29,186.47L158.82,188.06L163.36,188.9L167.9,188.64L172.44,185.61L176.97,186.39L181.51,187.89L186.05,188.26L190.59,187.75L195.13,191.56L199.66,198.56L204.2,192.26L208.74,188.52L213.28,188.13L217.82,193.97L222.35,187.45L226.89,183.66L231.43,187.13L249.58,185.04L254.12,181.57L267.73,167.24L272.27,166L276.81,168.1L281.34,164.07L285.88,163.57L290.42,163.9L294.96,161.4L299.5,161.35L308.57,161.77L313.11,155.7L317.65,159.67L322.18,168.21L326.72,163.86L331.26,162.47L335.8,160.61L340.34,155.85L344.87,155.13L349.41,156.58L353.95,159.35L358.49,156.67L363.03,159.01L367.56,162.61L372.1,162.45L376.64,164.72L381.18,165.2L385.71,162.5L390.25,165.34L394.79,166.32L399.33,165.32L403.87,161.02L412.94,157.22L417.48,153.78L431.09,156.1L435.63,150.18L440.17,147.37L444.71,147.95L449.24,154.04L453.78,155.1L458.32,156.29L462.86,159.07L467.39,155.55L471.93,155.4L476.47,157.13L481.01,156.17L485.55,153.42L490.08,153.24L494.62,159.39L499.16,149.01L503.7,141.94L508.24,139.83L512.77,139.4L517.31,140.67L521.85,144.01L526.39,151.02L530.92,147.29L535.46,146.22L540,151.85" style="vector-effect: none; fill: none; stroke: rgb(200, 200, 200); stroke-opacity: 1; stroke-width: 1px; opacity: 1;"/></g><g class="points"/><g class="text"/></g><g class="trace scatter trace285feb" style="stroke-miterlimit: 2; opacity: 1;"><g class="fills"/><g class="errorbars"/><g class="lines"><path class="js-line" d="M0,201.11L4.54,21.44L9.08,59.39L13.61,192.65L18.15,193.32L22.69,193.69L27.23,192.74L31.76,190.74L36.3,193.1L45.38,188.61L49.92,188.23L54.45,186.83L58.99,187.38L63.53,189.35L68.07,190.02L77.14,189.11L81.68,190.36L95.29,188.31L99.83,188.73L104.37,190.17L108.91,190.08L113.45,188.24L117.98,187.46L127.06,191L131.6,190.99L136.13,189.82L140.67,189.83L145.21,190.19L149.75,187.55L154.29,187.63L158.82,188.6L163.36,189.86L167.9,192.56L172.44,189.01L176.97,183.64L181.51,183.27L186.05,182.03L190.59,182.25L195.13,184.28L199.66,187.41L204.2,188.27L213.28,187.34L217.82,185.53L222.35,184.51L226.89,184.32L231.43,185.02L235.97,187.58L240.5,184.67L245.04,173.78L249.58,169.82L254.12,163.03L258.66,159.24L263.19,167.85L267.73,166.04L272.27,162.08L276.81,158.11L281.34,159.97L285.88,154.32L290.42,151.5L294.96,159.1L299.5,156L304.03,152.52L308.57,152.07L313.11,163.95L317.65,164.01L326.72,158.03L331.26,153.3L335.8,155.54L340.34,160.29L344.87,162.39L349.41,163.31L353.95,163.95L358.49,163.83L363.03,159.28L367.56,156.12L372.1,158.4L376.64,169.48L381.18,163.39L385.71,159.1L390.25,157.55L394.79,160.61L399.33,159.54L403.87,155.37L408.4,149.2L412.94,155.99L417.48,152.52L422.02,146.8L426.55,147.65L431.09,154.68L435.63,157.18L440.17,157.42L444.71,172.75L449.24,176.91L453.78,169.64L458.32,149.2L462.86,148.12L467.39,156.02L471.93,162.18L476.47,142.05L481.01,139.58L485.55,140.8L490.08,141.56L494.62,132.29L499.16,137.76L503.7,146.88L508.24,148.9L512.77,140.1L517.31,135.64L521.85,136.15L530.92,141.3L535.46,140.58L540,134.71" style="vector-effect: none; fill: none; stroke: rgb(200, 200, 200); stroke-opacity: 1; stroke-width: 1px; opacity: 1;"/></g><g class="points"/><g class="text"/></g><g class="trace scatter trace9a9194" style="stroke-miterlimit: 2; opacity: 1;"><g class="fills"/><g class="errorbars"/><g class="lines"><path class="js-line" d="M0,201.11L4.54,40.77L9.08,84.01L13.61,193.38L18.15,196.42L22.69,192.67L27.23,190.76L31.76,190.67L36.3,191.39L40.84,189.76L45.38,189.03L58.99,189.48L63.53,188.76L68.07,186.79L72.61,188.82L81.68,187.28L86.22,188.36L90.76,186.83L95.29,186.97L108.91,189.96L113.45,188.87L117.98,187.96L122.52,189.15L127.06,189.13L131.6,190.4L136.13,191.58L140.67,189.88L158.82,190.17L163.36,187.37L167.9,186.07L172.44,187.26L176.97,190.11L181.51,189.81L186.05,190.09L190.59,191.97L195.13,190.37L199.66,186.26L204.2,183.33L208.74,184L217.82,187.92L222.35,185.24L226.89,173.09L231.43,170.52L240.5,165.03L245.04,166.55L258.66,163.05L263.19,163.54L276.81,160L281.34,161.21L285.88,159.2L290.42,158.51L294.96,160.39L299.5,161.27L304.03,163.53L308.57,162.3L313.11,154.96L317.65,153.62L326.72,154.8L331.26,152.39L340.34,156.91L344.87,159.81L349.41,163.3L353.95,157.31L358.49,155.85L363.03,161.8L367.56,179.93L372.1,179.58L381.18,173.75L385.71,175.82L390.25,163.92L394.79,155.92L399.33,156.12L403.87,151.77L408.4,149.82L412.94,152.87L417.48,161.43L422.02,153.05L426.55,152L431.09,153.44L435.63,153.42L440.17,151.36L444.71,145.09L449.24,141.58L453.78,151.01L458.32,155.3L462.86,149.41L467.39,139.35L471.93,139.22L476.47,144.13L481.01,143.82L485.55,139.97L490.08,145.21L494.62,144.32L499.16,144.47L503.7,145.85L508.24,135.58L512.77,142.62L517.31,145.81L521.85,136.72L526.39,145.66L530.92,144.99L540,134.65" style="vector-effect: none; fill: none; stroke: rgb(200, 200, 200); stroke-opacity: 1; stroke-width: 1px; opacity: 1;"/></g><g class="points"/><g class="text"/></g><g class="trace scatter traced71c72" style="stroke-miterlimit: 2; opacity: 1;"><g class="fills"/><g class="errorbars"/><g class="lines"><path class="js-line" d="M0,201.11L4.54,57.17L9.08,78.08L13.61,171.18L18.15,189.21L22.69,192.18L27.23,191.09L31.76,190.25L36.3,191.57L45.38,189.06L49.92,189.15L54.45,188.78L58.99,189.42L63.53,189.88L68.07,188.65L86.22,189.03L90.76,188.27L95.29,187.93L99.83,188.67L104.37,189.65L108.91,188.94L117.98,188.21L122.52,189.17L136.13,190.6L140.67,190.4L145.21,190.73L149.75,189.32L154.29,187.92L158.82,188.94L167.9,189.09L172.44,187.29L176.97,186.71L181.51,186.99L190.59,187.32L195.13,188.74L199.66,190.75L204.2,187.95L208.74,186.84L213.28,187.18L217.82,189.14L222.35,185.73L226.89,180.36L231.43,180.89L235.97,180.55L240.5,178.57L245.04,175.2L249.58,173.49L258.66,166.43L263.19,167.91L272.27,163.04L276.81,162.07L281.34,161.75L285.88,159.03L290.42,157.97L294.96,160.29L308.57,158.72L313.11,158.2L317.65,159.1L322.18,161.27L331.26,156.05L335.8,156.86L344.87,159.11L349.41,161.06L358.49,158.78L363.03,160.03L367.56,166.22L372.1,166.81L376.64,170.15L381.18,167.45L385.71,165.81L390.25,162.27L399.33,160.33L403.87,156.05L408.4,152.71L412.94,155.36L417.48,155.91L422.02,151.43L426.55,151.73L431.09,154.74L440.17,152.05L444.71,155.27L449.24,157.51L453.78,158.58L458.32,153.59L462.86,152.2L467.39,150.31L471.93,152.27L476.47,147.77L481.01,146.52L485.55,144.73L490.08,146.67L499.16,143.74L503.7,144.89L508.24,141.44L512.77,140.7L517.31,140.71L521.85,138.96L526.39,145.15L530.92,144.53L540,140.4" style="vector-effect: none; fill: none; stroke: rgb(0, 0, 255); stroke-opacity: 1; stroke-width: 3px; opacity: 1;"/></g><g class="points"/><g class="text"/></g><g class="trace scatter tracef2d401" style="stroke-miterlimit: 2; opacity: 1;"><g class="fills"><g><path class="js-fill" d="M0,201.11L4.54,11L9.08,61.53L13.61,133.37L18.15,179.29L22.69,190.37L27.23,189.57L31.76,189.47L36.3,190.12L49.92,188.26L54.45,186.83L63.53,188.42L68.07,186.98L72.61,188.22L77.14,187.9L81.68,187.4L86.22,188.38L90.76,187.01L95.29,187.1L104.37,189.17L108.91,187.05L113.45,188.11L117.98,187.3L122.52,189.15L127.06,188.78L131.6,189.72L136.13,189.7L145.21,189.67L149.75,187.76L154.29,186.31L158.82,187.85L163.36,187.45L167.9,185.82L172.44,185.59L176.97,183.47L181.51,183.63L186.05,182.57L190.59,182.45L195.13,184.83L204.2,183.48L208.74,184.37L213.28,186.14L217.82,184.79L222.35,184.2L226.89,174.06L240.5,166.82L245.04,165.76L249.58,163.25L254.12,159.21L258.66,157.09L263.19,163.51L267.73,162.74L272.27,160.42L276.81,156.76L281.34,159.65L285.88,154.4L290.42,151.75L294.96,159.14L299.5,156.48L304.03,153.35L308.57,152.96L326.72,154.31L331.26,150.48L335.8,153.56L340.34,155.36L344.87,155.43L349.41,157.18L353.95,156.8L358.49,154.39L363.03,158.49L367.56,153.91L372.1,155.57L376.64,164.35L381.18,161.91L385.71,156.97L390.25,158.12L394.79,155.74L399.33,155.67L403.87,151.39L408.4,147.16L412.94,153.11L417.48,151.09L422.02,147.36L426.55,147.78L431.09,153.41L440.17,146.99L444.71,140.05L449.24,139.59L453.78,148.79L458.32,149.75L462.86,146.22L467.39,140.81L471.93,140.47L476.47,139.59L481.01,137.91L485.55,137.19L490.08,140.69L494.62,131.76L499.16,138.08L503.7,142.28L508.24,134.63L512.77,139.01L517.31,135.62L521.85,134.58L526.39,139.01L530.92,141.5L535.46,138.86L540,130.49L540,150.32L535.46,145.7L530.92,147.55L526.39,151.29L521.85,143.35L517.31,145.8L512.77,142.4L508.24,148.24L503.7,147.5L499.16,149.4L494.62,158.91L490.08,152.64L485.55,152.27L481.01,155.14L476.47,155.94L471.93,164.06L467.39,159.8L462.86,158.18L458.32,157.44L453.78,168.37L449.24,175.42L444.71,170.48L440.17,157.11L435.63,157.1L431.09,156.07L422.02,155.5L417.48,160.73L412.94,157.6L408.4,158.26L403.87,160.72L399.33,164.98L394.79,166.16L390.25,166.42L385.71,174.65L381.18,172.98L372.1,178.05L367.56,178.53L363.03,161.57L358.49,163.17L353.95,163.61L349.41,164.94L340.34,160L335.8,160.16L326.72,163.48L322.18,168.17L317.65,164.32L313.11,163.19L304.03,165.13L299.5,162.6L294.96,161.45L290.42,164.19L281.34,163.85L276.81,167.38L272.27,165.65L267.73,167.74L263.19,172.32L258.66,175.77L249.58,183.72L245.04,184.63L240.5,190.32L235.97,191.97L231.43,189.93L226.89,186.66L222.35,187.27L217.82,193.49L213.28,188.22L208.74,189.32L204.2,192.42L199.66,197.54L195.13,192.64L190.59,192.2L181.51,190.35L176.97,189.96L172.44,188.99L167.9,192.36L163.36,189.96L158.82,190.04L154.29,189.52L149.75,190.88L145.21,191.79L140.67,191.35L131.6,191.01L127.06,190.85L122.52,189.19L117.98,189.12L113.45,188.82L108.91,190.82L95.29,188.76L90.76,189.53L77.14,190.03L72.61,189.31L63.53,191.35L58.99,191.44L45.38,189.53L40.84,191.18L36.3,193.02L31.76,191.04L22.69,193.99L18.15,199.14L13.61,209L9.08,94.62L4.54,103.34L0,201.11Z" style="fill: rgb(180, 100, 255); fill-opacity: 0.2; stroke-width: 0;"/></g></g><g class="errorbars"/><g class="lines"><path class="js-line" d="M0,201.11L4.54,11L9.08,61.53L13.61,133.37L18.15,179.29L22.69,190.37L27.23,189.57L31.76,189.47L36.3,190.12L49.92,188.26L54.45,186.83L63.53,188.42L68.07,186.98L72.61,188.22L77.14,187.9L81.68,187.4L86.22,188.38L90.76,187.01L95.29,187.1L104.37,189.17L108.91,187.05L113.45,188.11L117.98,187.3L122.52,189.15L127.06,188.78L131.6,189.72L136.13,189.7L145.21,189.67L149.75,187.76L154.29,186.31L158.82,187.85L163.36,187.45L167.9,185.82L172.44,185.59L176.97,183.47L181.51,183.63L186.05,182.57L190.59,182.45L195.13,184.83L204.2,183.48L208.74,184.37L213.28,186.14L217.82,184.79L222.35,184.2L226.89,174.06L240.5,166.82L245.04,165.76L249.58,163.25L254.12,159.21L258.66,157.09L263.19,163.51L267.73,162.74L272.27,160.42L276.81,156.76L281.34,159.65L285.88,154.4L290.42,151.75L294.96,159.14L299.5,156.48L304.03,153.35L308.57,152.96L326.72,154.31L331.26,150.48L335.8,153.56L340.34,155.36L344.87,155.43L349.41,157.18L353.95,156.8L358.49,154.39L363.03,158.49L367.56,153.91L372.1,155.57L376.64,164.35L381.18,161.91L385.71,156.97L390.25,158.12L394.79,155.74L399.33,155.67L403.87,151.39L408.4,147.16L412.94,153.11L417.48,151.09L422.02,147.36L426.55,147.78L431.09,153.41L440.17,146.99L444.71,140.05L449.24,139.59L453.78,148.79L458.32,149.75L462.86,146.22L467.39,140.81L471.93,140.47L476.47,139.59L481.01,137.91L485.55,137.19L490.08,140.69L494.62,131.76L499.16,138.08L503.7,142.28L508.24,134.63L512.77,139.01L517.31,135.62L521.85,134.58L526.39,139.01L530.92,141.5L535.46,138.86L540,130.49L540,150.32L535.46,145.7L530.92,147.55L526.39,151.29L521.85,143.35L517.31,145.8L512.77,142.4L508.24,148.24L503.7,147.5L499.16,149.4L494.62,158.91L490.08,152.64L485.55,152.27L481.01,155.14L476.47,155.94L471.93,164.06L467.39,159.8L462.86,158.18L458.32,157.44L453.78,168.37L449.24,175.42L444.71,170.48L440.17,157.11L435.63,157.1L431.09,156.07L422.02,155.5L417.48,160.73L412.94,157.6L408.4,158.26L403.87,160.72L399.33,164.98L394.79,166.16L390.25,166.42L385.71,174.65L381.18,172.98L372.1,178.05L367.56,178.53L363.03,161.57L358.49,163.17L353.95,163.61L349.41,164.94L340.34,160L335.8,160.16L326.72,163.48L322.18,168.17L317.65,164.32L313.11,163.19L304.03,165.13L299.5,162.6L294.96,161.45L290.42,164.19L281.34,163.85L276.81,167.38L272.27,165.65L267.73,167.74L263.19,172.32L258.66,175.77L249.58,183.72L245.04,184.63L240.5,190.32L235.97,191.97L231.43,189.93L226.89,186.66L222.35,187.27L217.82,193.49L213.28,188.22L208.74,189.32L204.2,192.42L199.66,197.54L195.13,192.64L190.59,192.2L181.51,190.35L176.97,189.96L172.44,188.99L167.9,192.36L163.36,189.96L158.82,190.04L154.29,189.52L149.75,190.88L145.21,191.79L140.67,191.35L131.6,191.01L127.06,190.85L122.52,189.19L117.98,189.12L113.45,188.82L108.91,190.82L95.29,188.76L90.76,189.53L77.14,190.03L72.61,189.31L63.53,191.35L58.99,191.44L45.38,189.53L40.84,191.18L36.3,193.02L31.76,191.04L22.69,193.99L18.15,199.14L13.61,209L9.08,94.62L4.54,103.34L0,201.11" style="vector-effect: none; fill: none; stroke: rgb(255, 255, 255); stroke-opacity: 0; stroke-width: 2px; opacity: 1;"/></g><g class="points"/><g class="text"/></g></g></g></g><path class="xlines-above crisp" d="M0,0" style="fill: none;"/><path class="ylines-above crisp" d="M0,0" style="fill: none;"/><g class="overlines-above"/><g class="xaxislayer-above"><g class="xtick"><text text-anchor="middle" x="0" y="333" transform="translate(80,0)" style="font-family: 'Open Sans', verdana, arial, sans-serif; font-size: 12px; fill: rgb(42, 63, 95); fill-opacity: 1; white-space: pre; opacity: 1;">00:00:00</text></g><g class="xtick"><text text-anchor="middle" x="0" y="333" style="font-family: 'Open Sans', verdana, arial, sans-serif; font-size: 12px; fill: rgb(42, 63, 95); fill-opacity: 1; white-space: pre; opacity: 1;" transform="translate(216.13,0)">00:00:30</text></g><g class="xtick"><text text-anchor="middle" x="0" y="333" style="font-family: 'Open Sans', verdana, arial, sans-serif; font-size: 12px; fill: rgb(42, 63, 95); fill-opacity: 1; white-space: pre; opacity: 1;" transform="translate(352.27,0)">00:01:00</text></g><g class="xtick"><text text-anchor="middle" x="0" y="333" style="font-family: 'Open Sans', verdana, arial, sans-serif; font-size: 12px; fill: rgb(42, 63, 95); fill-opacity: 1; white-space: pre; opacity: 1;" transform="translate(488.4,0)">00:01:30</text></g></g><g class="yaxislayer-above"><g class="ytick"><text text-anchor="end" x="79" y="4.199999999999999" transform="translate(0,301.13)" style="font-family: 'Open Sans', verdana, arial, sans-serif; font-size: 12px; fill: rgb(42, 63, 95); fill-opacity: 1; white-space: pre; opacity: 1;">0</text></g><g class="ytick"><text text-anchor="end" x="79" y="4.199999999999999" style="font-family: 'Open Sans', verdana, arial, sans-serif; font-size: 12px; fill: rgb(42, 63, 95); fill-opacity: 1; white-space: pre; opacity: 1;" transform="translate(0,253.85)">0.5</text></g><g class="ytick"><text text-anchor="end" x="79" y="4.199999999999999" style="font-family: 'Open Sans', verdana, arial, sans-serif; font-size: 12px; fill: rgb(42, 63, 95); fill-opacity: 1; white-space: pre; opacity: 1;" transform="translate(0,206.56)">1</text></g><g class="ytick"><text text-anchor="end" x="79" y="4.199999999999999" style="font-family: 'Open Sans', verdana, arial, sans-serif; font-size: 12px; fill: rgb(42, 63, 95); fill-opacity: 1; white-space: pre; opacity: 1;" transform="translate(0,159.28)">1.5</text></g><g class="ytick"><text text-anchor="end" x="79" y="4.199999999999999" style="font-family: 'Open Sans', verdana, arial, sans-serif; font-size: 12px; fill: rgb(42, 63, 95); fill-opacity: 1; white-space: pre; opacity: 1;" transform="translate(0,112)">2</text></g></g><g class="overaxes-above"/></g></g><g class="polarlayer"/><g class="smithlayer"/><g class="ternarylayer"/><g class="geolayer"/><g class="funnelarealayer"/><g class="pielayer"/><g class="iciclelayer"/><g class="treemaplayer"/><g class="sunburstlayer"/><g class="glimages"/><defs id="topdefs-306ae8"><g class="clips"/></defs><g class="layer-above"><g class="imagelayer"/><g class="shapelayer"/></g><g class="infolayer"><g class="g-gtitle"><text class="gtitle" x="35" y="50" text-anchor="start" dy="0em" style="opacity: 1; font-family: 'Open Sans', verdana, arial, sans-serif; font-size: 14px; fill: rgb(42, 63, 95); fill-opacity: 1; white-space: pre;">Multiple-Producers-Consumers-Different Noauth-Notls Consumer-1 Stdout Mb_per_sec</text></g><g class="g-xtitle"><text class="xtitle" x="350" y="360.3" text-anchor="middle" style="opacity: 1; font-family: 'Open Sans', verdana, arial, sans-serif; font-size: 14px; fill: rgb(42, 63, 95); fill-opacity: 1; white-space: pre;">Time (HH:MM:SS)</text></g><g class="g-ytitle"/></g></svg>