<svg width="489" height="121" viewBox="0 0 489 121" fill="none" xmlns="http://www.w3.org/2000/svg">
<path d="M163.81 59.93V51.66C163.81 49.61 162.61 48.71 161.1 48.71C159.59 48.71 158.36 49.64 158.36 51.66V59.93H155.65V41H158.36V47.8C159.29 46.79 160.51 46.28 161.84 46.28C164.84 46.28 166.52 48.3 166.52 51.22V59.91H163.81V59.93Z" fill="black"/>
<path d="M179.48 58.49C178.6 59.39 177.27 60.09 175.44 60.09C173.61 60.09 172.3 59.4 171.43 58.49C170.15 57.16 169.83 55.46 169.83 53.17C169.83 50.88 170.15 49.21 171.43 47.88C172.31 46.98 173.61 46.29 175.44 46.29C177.27 46.29 178.6 46.98 179.48 47.88C180.76 49.21 181.07 50.91 181.07 53.17C181.07 55.43 180.75 57.16 179.48 58.49ZM177.43 49.48C176.93 48.98 176.23 48.71 175.44 48.71C174.65 48.71 173.98 48.98 173.47 49.48C172.65 50.3 172.54 51.71 172.54 53.17C172.54 54.63 172.65 56.04 173.47 56.86C173.98 57.36 174.64 57.66 175.44 57.66C176.24 57.66 176.93 57.37 177.43 56.86C178.25 56.04 178.36 54.63 178.36 53.17C178.36 51.71 178.25 50.3 177.43 49.48Z" fill="black"/>
<path d="M189.94 60.09C186.91 60.09 183.93 58.23 183.93 53.18C183.93 48.13 186.91 46.3 189.94 46.3C191.8 46.3 193.1 46.83 194.38 48.19L192.52 50C191.67 49.07 191 48.72 189.94 48.72C188.88 48.72 188.03 49.15 187.44 49.92C186.86 50.66 186.64 51.62 186.64 53.19C186.64 54.76 186.85 55.74 187.44 56.49C188.02 57.26 188.9 57.69 189.94 57.69C190.98 57.69 191.67 57.34 192.52 56.41L194.38 58.19C193.1 59.55 191.8 60.1 189.94 60.1V60.09Z" fill="black"/>
<path d="M205.48 59.93V51.66C205.48 49.61 204.28 48.71 202.77 48.71C201.26 48.71 200.03 49.64 200.03 51.66V59.93H197.32V41H200.03V47.8C200.96 46.79 202.18 46.28 203.51 46.28C206.51 46.28 208.19 48.3 208.19 51.22V59.91H205.48V59.93Z" fill="black"/>
<path d="M216.66 60.09C214.45 60.09 212.59 59.72 211 58.15L212.78 56.37C213.87 57.49 215.33 57.78 216.66 57.78C218.31 57.78 219.61 57.2 219.61 55.92C219.61 55.02 219.11 54.43 217.8 54.33L215.65 54.14C213.12 53.93 211.66 52.78 211.66 50.42C211.66 47.79 213.92 46.3 216.74 46.3C218.76 46.3 220.49 46.73 221.74 47.82L220.04 49.55C219.19 48.83 217.99 48.57 216.72 48.57C215.1 48.57 214.27 49.29 214.27 50.3C214.27 51.1 214.69 51.71 216.13 51.84L218.26 52.03C220.79 52.24 222.27 53.44 222.27 55.83C222.27 58.65 219.88 60.11 216.66 60.11V60.09Z" fill="black"/>
<path d="M230.88 60.09C227.85 60.09 224.87 58.23 224.87 53.18C224.87 48.13 227.85 46.3 230.88 46.3C232.74 46.3 234.04 46.83 235.32 48.19L233.46 50C232.61 49.07 231.94 48.72 230.88 48.72C229.82 48.72 228.97 49.15 228.38 49.92C227.8 50.66 227.58 51.62 227.58 53.19C227.58 54.76 227.79 55.74 228.38 56.49C228.96 57.26 229.84 57.69 230.88 57.69C231.92 57.69 232.61 57.34 233.46 56.41L235.32 58.19C234.04 59.55 232.74 60.1 230.88 60.1V60.09Z" fill="black"/>
<path d="M246.42 59.93V51.66C246.42 49.61 245.22 48.71 243.71 48.71C242.2 48.71 240.97 49.64 240.97 51.66V59.93H238.26V41H240.97V47.8C241.9 46.79 243.12 46.28 244.45 46.28C247.45 46.28 249.13 48.3 249.13 51.22V59.91H246.42V59.93Z" fill="black"/>
<path d="M261.15 59.93V58.57C260.22 59.58 258.92 60.09 257.56 60.09C256.2 60.09 255.03 59.64 254.24 58.87C253.2 57.86 252.88 56.58 252.88 55.07V46.46H255.59V54.67C255.59 56.77 256.79 57.67 258.3 57.67C259.81 57.67 261.09 56.74 261.09 54.67V46.46H263.8V59.94H261.14L261.15 59.93Z" fill="black"/>
<path d="M271.44 59.93C268.86 59.93 267.75 58.2 267.75 56.21V41.01H270.46V56.05C270.46 57.09 270.83 57.62 271.92 57.62H273.12V59.93H271.45H271.44Z" fill="black"/>
<path d="M277.86 53.97C277.86 56.28 279.08 57.74 281.29 57.74C282.81 57.74 283.6 57.31 284.56 56.36L286.29 57.98C284.91 59.36 283.61 60.08 281.24 60.08C277.86 60.08 275.18 58.3 275.18 53.17C275.18 48.81 277.44 46.29 280.89 46.29C284.34 46.29 286.6 48.95 286.6 52.78V53.98H277.85L277.86 53.97ZM283.55 50.25C283.12 49.24 282.17 48.55 280.89 48.55C279.61 48.55 278.63 49.24 278.21 50.25C277.94 50.86 277.89 51.26 277.86 52.08H283.92C283.89 51.26 283.81 50.86 283.55 50.25Z" fill="black"/>
<path d="M163.38 86.5V85.06C162.37 86.28 161.28 86.66 159.82 86.66C158.46 86.66 157.27 86.21 156.52 85.46C155.16 84.1 155 81.79 155 79.75C155 77.71 155.16 75.42 156.52 74.06C157.26 73.32 158.43 72.86 159.79 72.86C161.23 72.86 162.34 73.21 163.33 74.37V67.57H166.04V86.5H163.38ZM160.54 75.28C158.09 75.28 157.72 77.35 157.72 79.75C157.72 82.15 158.09 84.24 160.54 84.24C162.99 84.24 163.33 82.14 163.33 79.75C163.33 77.36 162.98 75.28 160.54 75.28Z" fill="black"/>
<path d="M177.42 86.5V85.28C176.44 86.26 175.51 86.66 173.83 86.66C172.15 86.66 171.04 86.26 170.21 85.44C169.52 84.72 169.15 83.69 169.15 82.54C169.15 80.28 170.72 78.66 173.8 78.66H177.36V77.7C177.36 76 176.51 75.18 174.41 75.18C172.92 75.18 172.2 75.53 171.46 76.48L169.68 74.81C170.96 73.32 172.28 72.87 174.52 72.87C178.21 72.87 180.07 74.44 180.07 77.49V86.5H177.41H177.42ZM177.37 80.55H174.21C172.62 80.55 171.79 81.27 171.79 82.49C171.79 83.71 172.56 84.4 174.26 84.4C175.3 84.4 176.07 84.32 176.79 83.63C177.19 83.23 177.37 82.59 177.37 81.64V80.55Z" fill="black"/>
<path d="M191.41 76.19C190.8 75.58 190.32 75.29 189.39 75.29C187.93 75.29 186.71 76.46 186.71 78.32V86.51H184V73.03H186.66V74.49C187.35 73.53 188.73 72.87 190.25 72.87C191.55 72.87 192.54 73.22 193.47 74.15L191.42 76.2L191.41 76.19Z" fill="black"/>
<path d="M212.36 86.5V78.29C212.36 76.19 211.16 75.29 209.65 75.29C208.14 75.29 206.86 76.22 206.86 78.16V86.51H204.15V78.3C204.15 76.2 202.95 75.3 201.44 75.3C199.93 75.3 198.65 76.23 198.65 78.3V86.51H195.94V73.03H198.6V74.39C199.5 73.41 200.83 72.88 202.19 72.88C203.86 72.88 205.17 73.54 206.02 74.85C207.11 73.52 208.47 72.88 210.25 72.88C211.63 72.88 212.86 73.33 213.65 74.1C214.69 75.11 215.09 76.39 215.09 77.9V86.51H212.38L212.36 86.5Z" fill="black"/>
<path d="M223.56 86.66C221.35 86.66 219.49 86.29 217.9 84.72L219.68 82.94C220.77 84.06 222.23 84.35 223.56 84.35C225.21 84.35 226.51 83.77 226.51 82.49C226.51 81.59 226.01 81 224.7 80.9L222.55 80.71C220.03 80.5 218.56 79.35 218.56 76.99C218.56 74.36 220.82 72.87 223.64 72.87C225.66 72.87 227.39 73.3 228.64 74.38L226.94 76.11C226.09 75.39 224.89 75.13 223.62 75.13C222 75.13 221.17 75.85 221.17 76.86C221.17 77.66 221.59 78.27 223.03 78.4L225.16 78.59C227.68 78.8 229.17 80 229.17 82.39C229.17 85.21 226.78 86.67 223.56 86.67V86.66Z" fill="black"/>
<path d="M236.55 86.5C234.02 86.5 232.85 84.69 232.85 82.75V75.33H231.31V73.26H232.85V69.17H235.56V73.26H238.16V75.33H235.56V82.61C235.56 83.59 236.04 84.18 237.05 84.18H238.17V86.49H236.55V86.5Z" fill="black"/>
<path d="M248.93 86.5V85.28C247.95 86.26 247.02 86.66 245.34 86.66C243.66 86.66 242.55 86.26 241.72 85.44C241.03 84.72 240.66 83.69 240.66 82.54C240.66 80.28 242.23 78.66 245.31 78.66H248.87V77.7C248.87 76 248.02 75.18 245.92 75.18C244.43 75.18 243.71 75.53 242.97 76.48L241.19 74.81C242.47 73.32 243.79 72.87 246.03 72.87C249.72 72.87 251.58 74.44 251.58 77.49V86.5H248.92H248.93ZM248.88 80.55H245.72C244.13 80.55 243.3 81.27 243.3 82.49C243.3 83.71 244.07 84.4 245.77 84.4C246.81 84.4 247.58 84.32 248.3 83.63C248.7 83.23 248.88 82.59 248.88 81.64V80.55Z" fill="black"/>
<path d="M263.35 86.5V85.06C262.34 86.28 261.25 86.66 259.79 86.66C258.43 86.66 257.24 86.21 256.49 85.46C255.13 84.1 254.97 81.79 254.97 79.75C254.97 77.71 255.13 75.42 256.49 74.06C257.23 73.32 258.4 72.86 259.76 72.86C261.2 72.86 262.31 73.21 263.3 74.37V67.57H266.01V86.5H263.35ZM260.51 75.28C258.06 75.28 257.69 77.35 257.69 79.75C257.69 82.15 258.06 84.24 260.51 84.24C262.96 84.24 263.3 82.14 263.3 79.75C263.3 77.36 262.95 75.28 260.51 75.28Z" fill="black"/>
<path d="M274.16 86.5C271.63 86.5 270.46 84.69 270.46 82.75V75.33H268.92V73.26H270.46V69.17H273.17V73.26H275.77V75.33H273.17V82.61C273.17 83.59 273.65 84.18 274.66 84.18H275.78V86.49H274.16V86.5Z" fill="black"/>
<path d="M121.1 72.04C121.1 74.38 120.74 75.92 119.71 76.87C118.03 78.48 116.35 78.7 113.71 78.7C109.98 78.7 108.22 76.94 108.22 74.31C108.22 71.68 110.12 69.99 113.56 69.99H121.09V72.04H121.1ZM130.61 86.09V61C130.61 52.08 125.05 47.54 114.37 47.54C108.01 47.54 104.35 48.71 100.62 52.81L106.69 58.74C108.66 56.47 110.35 55.59 114.01 55.59C119.06 55.59 121.1 57.42 121.1 61.59V63.49H112.1C103.25 63.49 99.08 68.47 99.08 74.54C99.08 77.9 100.18 80.98 102.23 83.1C104.5 85.37 107.64 86.46 111.96 86.46C116.28 86.46 118.76 85.36 121.32 82.8V86.09H130.61ZM82.19 67C82.19 73.22 81.38 77.97 75.68 77.97C69.98 77.97 69.25 73.22 69.25 67C69.25 60.78 69.98 56.1 75.68 56.1C81.38 56.1 82.19 60.78 82.19 67ZM91.7 86.09V34H82.19V51.34C79.7 48.56 76.78 47.53 72.9 47.53C69.02 47.53 65.73 48.85 63.61 50.97C59.8 54.78 59.73 61.28 59.73 66.99C59.73 72.7 59.8 79.28 63.61 83.08C65.73 85.2 69.24 86.52 72.97 86.52C77 86.52 79.77 85.42 82.41 82.5V86.08H91.7V86.09ZM59.17 90.9H36.5V93.05H59.17V90.9ZM31.39 86.09V61.44C31.39 53.39 27 47.54 18.66 47.54C15.29 47.54 12.07 48.86 9.52 51.49V34H0V86.08H9.51V62.82C9.51 57.84 12.66 56.09 15.65 56.09C18.64 56.09 21.87 57.77 21.87 62.82V86.08H31.38L31.39 86.09Z" fill="black"/>
<g clip-path="url(#clip0_5_82)">
<path d="M304 120.24L304.81 120.46L337.06 0.22L336.25 0L304 120.24Z" fill="black"/>
<path d="M394.86 23.49C394.86 22.52 395.41 22.02 396.24 22.02C397.07 22.02 397.6 22.51 397.6 23.49V26.9H398.41V23.4C398.41 22.52 398.98 22.02 399.79 22.02C400.6 22.02 401.15 22.51 401.15 23.49V26.9H401.96V23.36C401.96 22.72 401.76 22.2 401.37 21.82C401.03 21.49 400.54 21.3 399.94 21.3C399.16 21.3 398.55 21.61 398.12 22.22C397.78 21.61 397.19 21.3 396.42 21.3C395.8 21.3 395.25 21.52 394.86 21.97V21.36H394.05V26.89H394.86V23.48V23.49Z" fill="black"/>
<path d="M406.54 26.97C407.49 26.97 408 26.68 408.56 26.11L408.01 25.63C407.57 26.07 407.2 26.26 406.56 26.26C405.5 26.26 404.93 25.56 404.93 24.35H408.66V23.98C408.66 22.34 407.82 21.3 406.39 21.3C404.96 21.3 404.12 22.35 404.12 24.13C404.12 26.09 405.08 26.96 406.54 26.96V26.97ZM405.1 22.82C405.31 22.31 405.81 21.99 406.39 21.99C406.97 21.99 407.47 22.32 407.68 22.82C407.8 23.12 407.83 23.29 407.85 23.74H404.93C404.95 23.29 404.97 23.12 405.1 22.82Z" fill="black"/>
<path d="M411.65 23.49C411.65 22.52 412.2 22.02 413.03 22.02C413.86 22.02 414.39 22.51 414.39 23.49V26.9H415.2V23.4C415.2 22.52 415.77 22.02 416.58 22.02C417.39 22.02 417.94 22.51 417.94 23.49V26.9H418.75V23.36C418.75 22.72 418.55 22.2 418.15 21.82C417.81 21.49 417.32 21.3 416.72 21.3C415.94 21.3 415.33 21.61 414.9 22.22C414.56 21.61 413.97 21.3 413.2 21.3C412.58 21.3 412.03 21.52 411.64 21.97V21.36H410.83V26.89H411.64V23.48L411.65 23.49Z" fill="black"/>
<path d="M421.99 26.24C422.44 26.83 422.94 26.97 423.55 26.97C424.11 26.97 424.61 26.78 424.9 26.49C425.46 25.93 425.57 25.01 425.57 24.14C425.57 23.27 425.46 22.35 424.9 21.79C424.61 21.5 424.11 21.31 423.55 21.31C422.94 21.31 422.44 21.44 421.99 22.02V18.91H421.18V26.92H421.99V26.26V26.24ZM423.38 22.03C424.58 22.03 424.76 23.06 424.76 24.14C424.76 25.22 424.58 26.25 423.38 26.25C422.18 26.25 421.99 25.21 421.99 24.14C421.99 23.07 422.18 22.03 423.38 22.03Z" fill="black"/>
<path d="M429.98 26.97C430.92 26.97 431.44 26.68 432 26.11L431.45 25.63C431.01 26.07 430.64 26.26 430 26.26C428.94 26.26 428.37 25.56 428.37 24.35H432.1V23.98C432.1 22.34 431.26 21.3 429.83 21.3C428.4 21.3 427.56 22.35 427.56 24.13C427.56 26.09 428.52 26.96 429.98 26.96V26.97ZM428.54 22.82C428.75 22.31 429.25 21.99 429.83 21.99C430.41 21.99 430.91 22.32 431.12 22.82C431.24 23.12 431.27 23.29 431.29 23.74H428.37C428.39 23.29 428.41 23.12 428.54 22.82Z" fill="black"/>
<path d="M435.09 23.5C435.09 22.66 435.61 22.02 436.42 22.02C436.85 22.02 437.07 22.12 437.38 22.42L437.98 21.81C437.59 21.42 437.18 21.29 436.65 21.29C436.01 21.29 435.4 21.57 435.1 22.03V21.36H434.29V26.89H435.1V23.49L435.09 23.5Z" fill="black"/>
<path d="M443.78 26.97C444.45 26.97 444.98 26.72 445.36 26.34C445.92 25.77 446.04 24.99 446.04 24.13C446.04 23.27 445.93 22.5 445.36 21.93C444.98 21.55 444.45 21.3 443.78 21.3C443.11 21.3 442.58 21.55 442.19 21.93C441.63 22.5 441.52 23.28 441.52 24.13C441.52 24.98 441.63 25.76 442.19 26.34C442.57 26.72 443.1 26.97 443.78 26.97ZM442.78 22.43C443.04 22.17 443.39 22.03 443.78 22.03C444.17 22.03 444.53 22.18 444.79 22.43C445.2 22.84 445.23 23.52 445.23 24.14C445.23 24.76 445.2 25.45 444.79 25.85C444.53 26.11 444.17 26.26 443.78 26.26C443.39 26.26 443.04 26.11 442.78 25.85C442.37 25.45 442.33 24.76 442.33 24.14C442.33 23.52 442.38 22.84 442.78 22.43Z" fill="black"/>
<path d="M448.34 26.9H449.15V22.02H450.33V21.4H449.15V20.38C449.15 19.87 449.37 19.57 449.89 19.57H450.33V18.87H449.75C448.8 18.87 448.34 19.53 448.34 20.35V21.4H447.63V22.02H448.34V26.9Z" fill="black"/>
<path d="M381.02 93.28C381.27 92.99 381.39 92.62 381.39 92.19C381.39 90.98 380.62 90.37 379.09 90.37H377.44V96.65H378.43V94.07H379.07L380.56 96.65H381.72L380.04 93.92C380.45 93.79 380.77 93.58 381.02 93.28ZM378.43 93.28V91.14H379.14C379.55 91.14 379.86 91.22 380.05 91.38C380.25 91.54 380.34 91.81 380.34 92.17C380.34 92.55 380.24 92.83 380.04 93.01C379.84 93.19 379.54 93.27 379.16 93.27H378.42L378.43 93.28Z" fill="black"/>
<path d="M453.83 93.28C454.07 92.99 454.2 92.62 454.2 92.19C454.2 90.98 453.43 90.37 451.89 90.37H450.25V96.65H451.24V94.07H451.88L453.37 96.65H454.53L452.85 93.92C453.26 93.79 453.58 93.58 453.83 93.28ZM451.24 93.28V91.14H451.95C452.36 91.14 452.67 91.22 452.86 91.38C453.06 91.55 453.16 91.81 453.16 92.17C453.16 92.53 453.06 92.83 452.86 93.01C452.66 93.18 452.37 93.27 451.98 93.27H451.24V93.28Z" fill="black"/>
<path d="M445.73 101.09C445.01 101.09 444.45 101.39 444.06 101.98C443.67 102.57 443.48 103.37 443.48 104.36C443.48 105.35 443.67 106.16 444.06 106.74C444.45 107.32 445 107.61 445.73 107.61C446.46 107.61 447.01 107.32 447.4 106.73C447.79 106.14 447.98 105.35 447.98 104.35C447.98 103.35 447.79 102.55 447.4 101.96C447.02 101.38 446.46 101.08 445.73 101.08V101.09ZM446.66 106.19C446.47 106.59 446.15 106.79 445.73 106.79C445.31 106.79 445 106.59 444.8 106.19C444.6 105.79 444.51 105.18 444.51 104.36C444.51 103.54 444.61 102.91 444.8 102.51C444.99 102.11 445.31 101.91 445.73 101.91C446.15 101.91 446.47 102.11 446.66 102.51C446.86 102.91 446.95 103.52 446.95 104.35C446.95 105.18 446.85 105.79 446.66 106.19Z" fill="black"/>
<path d="M385.85 101.09C385.12 101.09 384.57 101.39 384.18 101.98C383.79 102.57 383.6 103.37 383.6 104.36C383.6 105.35 383.79 106.16 384.18 106.74C384.56 107.32 385.12 107.61 385.85 107.61C386.58 107.61 387.13 107.32 387.52 106.73C387.91 106.14 388.1 105.35 388.1 104.36C388.1 103.37 387.91 102.56 387.52 101.97C387.14 101.38 386.58 101.09 385.85 101.09ZM386.78 106.19C386.59 106.59 386.28 106.79 385.85 106.79C385.42 106.79 385.12 106.59 384.92 106.19C384.72 105.79 384.63 105.18 384.63 104.36C384.63 103.54 384.73 102.91 384.92 102.52C385.11 102.12 385.42 101.92 385.85 101.92C386.28 101.92 386.59 102.12 386.78 102.52C386.97 102.92 387.07 103.53 387.07 104.36C387.07 105.19 386.97 105.8 386.78 106.2V106.19Z" fill="black"/>
<path d="M385.7 96.77C386.43 96.77 386.98 96.48 387.37 95.89C387.75 95.3 387.95 94.51 387.95 93.52C387.95 92.53 387.76 91.72 387.37 91.13C386.98 90.54 386.43 90.25 385.7 90.25C384.97 90.25 384.42 90.55 384.03 91.14C383.64 91.73 383.45 92.53 383.45 93.52C383.45 94.51 383.64 95.32 384.03 95.9C384.42 96.48 384.97 96.77 385.7 96.77ZM384.77 91.68C384.96 91.28 385.27 91.08 385.7 91.08C386.13 91.08 386.44 91.28 386.63 91.68C386.83 92.08 386.92 92.69 386.92 93.52C386.92 94.35 386.82 94.96 386.63 95.36C386.44 95.76 386.13 95.96 385.7 95.96C385.27 95.96 384.97 95.76 384.77 95.36C384.57 94.96 384.47 94.35 384.47 93.53C384.47 92.71 384.57 92.08 384.76 91.68H384.77Z" fill="black"/>
<path d="M452.25 104.8H453.25V106.53C452.96 106.71 452.64 106.79 452.27 106.79C451.79 106.79 451.44 106.6 451.2 106.21C450.97 105.83 450.85 105.2 450.85 104.34C450.85 103.48 451 102.89 451.29 102.5C451.58 102.11 451.96 101.91 452.42 101.91C452.65 101.91 452.86 101.95 453.04 102.03C453.23 102.11 453.41 102.24 453.59 102.42L454.15 101.81C453.9 101.56 453.65 101.38 453.37 101.26C453.1 101.14 452.77 101.08 452.39 101.08C451.92 101.08 451.48 101.21 451.09 101.45C450.7 101.7 450.39 102.07 450.16 102.56C449.93 103.05 449.81 103.64 449.81 104.33C449.81 105.39 450.02 106.21 450.44 106.76C450.86 107.32 451.45 107.59 452.22 107.59C452.61 107.59 452.96 107.54 453.28 107.44C453.6 107.34 453.91 107.2 454.21 107.02V103.97H452.14L452.24 104.78L452.25 104.8Z" fill="black"/>
<path d="M373.9 94.39C373.9 94.91 373.82 95.3 373.65 95.55C373.48 95.8 373.21 95.93 372.85 95.93C372.49 95.93 372.23 95.81 372.06 95.55C371.89 95.3 371.81 94.91 371.81 94.39V90.37H370.82V94.59C370.82 95.25 371 95.78 371.36 96.17C371.71 96.56 372.22 96.76 372.86 96.76C373.29 96.76 373.66 96.67 373.97 96.48C374.28 96.3 374.51 96.04 374.68 95.71C374.84 95.38 374.92 95.01 374.92 94.58V90.36H373.92V94.38L373.9 94.39Z" fill="black"/>
<path d="M468.38 91.23H470.16V96.65H471.15V91.23H472.86L472.96 90.37H468.38V91.23Z" fill="black"/>
<path d="M477.11 93.35L475.71 90.37H474.61L476.59 94.26V96.65H477.59V94.25L479.56 90.37H478.52L477.11 93.35Z" fill="black"/>
<path d="M365.82 93.85H367.96V93.06H365.82V91.17H368.27L368.38 90.37H364.82V96.65H368.43V95.85H365.82V93.85Z" fill="black"/>
<path d="M458.33 104.19L456.93 101.22H455.84L457.81 105.1V107.49H458.81V105.09L460.79 101.22H459.74L458.33 104.19Z" fill="black"/>
<path d="M462.81 91.17H464.09V95.84H462.81V96.65H466.37V95.84H465.09V91.17H466.37V90.37H462.81V91.17Z" fill="black"/>
<path d="M412.91 90.37H412.03V93.23C412.03 93.72 412.04 94.14 412.07 94.5C412.1 94.86 412.13 95.26 412.17 95.71L410.28 90.37H408.99V96.64H409.87V93.79C409.87 93.12 409.82 92.29 409.73 91.3L411.62 96.64H412.91V90.37Z" fill="black"/>
<path d="M390.44 107.49H391.43V104.82H393.66V104.02H391.43V102.02H393.97L394.07 101.22H390.44V107.49Z" fill="black"/>
<path d="M447.5 91.17L447.62 90.37H444.06V96.65H447.67V95.85H445.05V93.85H447.19V93.06H445.05V91.17H447.5Z" fill="black"/>
<path d="M434.94 91.17V90.37H431.38V91.17H432.66V95.84H431.38V96.65H434.94V95.84H433.66V91.17H434.94Z" fill="black"/>
<path d="M433.6 101.09C432.88 101.09 432.32 101.39 431.93 101.98C431.54 102.57 431.35 103.37 431.35 104.36C431.35 105.35 431.54 106.16 431.93 106.74C432.31 107.32 432.87 107.61 433.6 107.61C434.33 107.61 434.88 107.32 435.27 106.73C435.66 106.14 435.85 105.35 435.85 104.35C435.85 103.35 435.66 102.55 435.27 101.96C434.88 101.38 434.33 101.08 433.6 101.08V101.09ZM434.53 106.19C434.34 106.59 434.02 106.79 433.6 106.79C433.18 106.79 432.87 106.59 432.67 106.19C432.47 105.79 432.38 105.18 432.38 104.36C432.38 103.54 432.48 102.91 432.67 102.51C432.86 102.11 433.18 101.91 433.6 101.91C434.02 101.91 434.34 102.11 434.53 102.51C434.72 102.91 434.82 103.52 434.82 104.35C434.82 105.18 434.72 105.79 434.53 106.19Z" fill="black"/>
<path d="M421.71 103.77H419.77V101.22H418.78V107.49H419.77V104.64H421.71V107.49H422.7V101.22H421.71V103.77Z" fill="black"/>
<path d="M415.43 106.61C415.23 106.7 414.98 106.75 414.7 106.75C414.2 106.75 413.81 106.55 413.51 106.16C413.21 105.77 413.06 105.16 413.06 104.34C413.06 103.52 413.21 102.89 413.51 102.5C413.81 102.11 414.2 101.91 414.68 101.91C415.16 101.91 415.55 102.06 415.91 102.37L416.42 101.72C416.17 101.5 415.91 101.34 415.63 101.24C415.36 101.14 415.03 101.09 414.64 101.09C414.15 101.09 413.71 101.22 413.31 101.47C412.91 101.73 412.59 102.1 412.36 102.59C412.13 103.08 412.01 103.67 412.01 104.35C412.01 105.03 412.12 105.63 412.35 106.12C412.58 106.61 412.89 106.98 413.29 107.23C413.69 107.48 414.14 107.61 414.65 107.61C415.4 107.61 416.02 107.36 416.5 106.87L416.02 106.22C415.82 106.39 415.62 106.52 415.42 106.62L415.43 106.61Z" fill="black"/>
<path d="M426.01 93.8C426.01 93.13 425.96 92.3 425.87 91.31L427.75 96.65H429.04V90.38H428.16V93.24C428.16 93.73 428.17 94.15 428.2 94.51C428.23 94.87 428.26 95.27 428.3 95.72L426.41 90.38H425.12V96.65H426V93.8H426.01Z" fill="black"/>
<path d="M421.71 94.39C421.71 94.91 421.63 95.3 421.46 95.55C421.29 95.8 421.02 95.93 420.66 95.93C420.3 95.93 420.04 95.81 419.87 95.55C419.7 95.3 419.62 94.91 419.62 94.39V90.37H418.63V94.59C418.63 95.25 418.81 95.78 419.16 96.17C419.52 96.56 420.02 96.76 420.66 96.76C421.09 96.76 421.46 96.67 421.77 96.48C422.08 96.3 422.31 96.04 422.48 95.71C422.64 95.38 422.73 95.01 422.73 94.58V90.36H421.73V94.38L421.71 94.39Z" fill="black"/>
<path d="M458.39 95.94C457.75 95.94 457.21 95.72 456.76 95.29L456.21 95.93C456.75 96.49 457.47 96.77 458.39 96.77C458.86 96.77 459.26 96.69 459.6 96.53C459.94 96.37 460.2 96.15 460.38 95.87C460.56 95.58 460.65 95.25 460.65 94.88C460.65 94.33 460.5 93.92 460.2 93.64C459.9 93.35 459.47 93.12 458.9 92.94C458.54 92.83 458.26 92.72 458.06 92.63C457.86 92.54 457.72 92.43 457.64 92.32C457.56 92.21 457.52 92.06 457.52 91.9C457.52 91.64 457.62 91.44 457.81 91.3C458.01 91.16 458.27 91.09 458.59 91.09C459.12 91.09 459.58 91.28 459.99 91.65L460.51 91.02C459.98 90.52 459.32 90.26 458.53 90.26C458.14 90.26 457.79 90.33 457.48 90.48C457.17 90.62 456.93 90.82 456.76 91.08C456.58 91.34 456.5 91.63 456.5 91.97C456.5 92.44 456.65 92.81 456.96 93.1C457.27 93.38 457.75 93.63 458.41 93.84C458.73 93.94 458.98 94.04 459.15 94.14C459.32 94.24 459.44 94.36 459.51 94.48C459.58 94.61 459.62 94.77 459.62 94.95C459.62 95.27 459.5 95.52 459.27 95.7C459.04 95.88 458.75 95.96 458.39 95.96V95.94Z" fill="black"/>
<path d="M399.83 102.07H401.62V107.49H402.61V102.07H404.32L404.42 101.22H399.83V102.07Z" fill="black"/>
<path d="M439.31 101.22H438.32V107.49H441.85L441.96 106.61H439.31V101.22Z" fill="black"/>
<path d="M428.29 104.07C428.29 104.55 428.3 104.98 428.33 105.34C428.36 105.7 428.39 106.11 428.43 106.55L426.54 101.21H425.25V107.48H426.13V104.63C426.13 103.96 426.08 103.13 425.99 102.14L427.87 107.48H429.16V101.21H428.28V104.06L428.29 104.07Z" fill="black"/>
<path d="M399.94 91.17L400.05 90.37H396.49V96.65H400.1V95.85H397.49V93.85H399.63V93.06H397.49V91.17H399.94Z" fill="black"/>
<path d="M439.61 95.65L438.21 90.37H437.15L439.02 96.65H440.15L442.03 90.37H441.02L439.61 95.65Z" fill="black"/>
<path d="M407.47 104.7H409.61V103.91H407.47V102.02H409.92L410.03 101.22H406.47V107.49H410.08V106.69H407.47V104.7Z" fill="black"/>
<path d="M405.14 90.37H403.91L402.03 96.64H403.05L403.46 95.13H405.57L405.98 96.64H407.03L405.14 90.37ZM403.66 94.32L404.51 91.19L405.36 94.32H403.66Z" fill="black"/>
<path d="M392.02 90.37H390.38V96.64H391.37V94.4H392.09C392.8 94.4 393.37 94.23 393.78 93.9C394.19 93.56 394.4 93.04 394.4 92.34C394.4 91.68 394.19 91.19 393.78 90.86C393.37 90.53 392.78 90.36 392.02 90.36V90.37ZM393.03 93.32C392.81 93.52 392.5 93.61 392.1 93.61H391.37V91.16H392.09C392.94 91.16 393.36 91.56 393.36 92.34C393.36 92.79 393.25 93.12 393.03 93.31V93.32Z" fill="black"/>
<path d="M481.18 62.21V54.57H476.24V62.21H468.72V67.23H476.24V74.86H481.18V67.23H488.71V62.21H481.18Z" fill="black"/>
<path d="M457.5 54.57H452.56V82.62H457.5V54.57Z" fill="black"/>
<path d="M441.34 82.62V49.05H468.72V44.04H436.44L436.41 77.61H427.58C422.46 77.61 418.75 74.25 418.75 69.63V44.04H413.81V60.26C413.74 69.99 406.37 77.61 397.04 77.61C389.3 77.61 383.51 73.74 381.44 67.23H393.11C401.96 67.23 406.58 60.93 406.58 54.71C406.58 48.82 402.08 42.86 393.48 42.86C383.83 42.86 375.69 51.53 375.69 61.78C375.69 61.92 375.69 62.07 375.69 62.21H355.7V67.22H376.32C378.56 76.59 386.65 82.61 397.04 82.61C403.97 82.61 410.41 79.29 414.45 73.68C416.21 79.06 421.35 82.61 427.58 82.61H441.35L441.34 82.62ZM380.61 62.21C380.61 62.07 380.61 61.92 380.61 61.78C380.61 54.37 386.62 47.87 393.47 47.87C399.93 47.87 401.63 52.35 401.63 54.71C401.63 59.87 397.21 62.21 393.09 62.21H380.61Z" fill="black"/>
</g>
<defs>
<clipPath id="clip0_5_82">
<rect width="184.71" height="120.46" fill="white" transform="translate(304)"/>
</clipPath>
</defs>
</svg>
